<svg id="Icon_material-add-shopping-cart" data-name="Icon material-add-shopping-cart" xmlns="http://www.w3.org/2000/svg" width="24.074" height="23.883" viewBox="0 0 24.074 23.883">
  <path id="Icon_material-add-shopping-cart-2" data-name="Icon material-add-shopping-cart" d="M8.665,21.8a2.388,2.388,0,1,0,2.388,2.388A2.385,2.385,0,0,0,8.665,21.8Zm11.942,0a2.388,2.388,0,1,0,2.388,2.388A2.385,2.385,0,0,0,20.607,21.8ZM8.868,17.92l.036-.143L9.979,15.83h8.9a2.377,2.377,0,0,0,2.09-1.23l4.609-8.371L23.5,5.082h-.012L22.171,7.471l-3.3,5.971H10.492l-.155-.322L7.662,7.471,6.527,5.082,5.4,2.694H1.5V5.082H3.888l4.3,9.064L6.575,17.072a2.309,2.309,0,0,0-.3,1.146,2.4,2.4,0,0,0,2.388,2.388h14.33V18.218H9.166A.3.3,0,0,1,8.868,17.92Z" transform="translate(-1.5 -2.694)"/>
</svg>
